<?xml version="1.0" encoding="utf-8"?>
<!-- Generator: Adobe Illustrator 25.2.0, SVG Export Plug-In . SVG Version: 6.00 Build 0)  -->
<svg version="1.1" id="Layer_1" xmlns="http://www.w3.org/2000/svg" xmlns:xlink="http://www.w3.org/1999/xlink" x="0px" y="0px"
	 viewBox="0 0 64 64" style="enable-background:new 0 0 64 64;" xml:space="preserve">
<g>
	<path d="M47.8,36.7c-4.8-4.7-9.5-9.5-14.1-14.1c-0.9-0.9-2.3-0.9-3,0c-4.7,4.7-9.5,9.5-14.1,14.1c-2,2,1.1,5.1,3,3
		c4.2-4.2,8.5-8.5,12.6-12.6c4.2,4.2,8.5,8.5,12.6,12.6C46.7,41.7,49.8,38.7,47.8,36.7z"/>
	<path d="M32.1,6c-14.3,0-26,11.7-26,26c0,14.3,11.7,26,26,26s26-11.7,26-26C58.1,17.7,46.5,6,32.1,6z M32.1,54
		c-12.1,0-22-9.9-22-22s9.9-22,22-22c12.1,0,22,9.9,22,22S44.3,54,32.1,54z"/>
</g>
</svg>
